<?xml version="1.0" standalone="no"?>
<!DOCTYPE svg PUBLIC "-//W3C//DTD SVG 20010904//EN"
 "http://www.w3.org/TR/2001/REC-SVG-20010904/DTD/svg10.dtd">
<svg version="1.0" xmlns="http://www.w3.org/2000/svg"
 width="600.000000pt" height="600.000000pt" viewBox="0 0 600.000000 600.000000"
 preserveAspectRatio="xMidYMid meet">
<metadata>
Created by potrace 1.14, written by Peter Selinger 2001-2017
</metadata>
<g transform="translate(0.000000,600.000000) scale(0.100000,-0.100000)"
fill="#000000" stroke="none">
<path d="M3987 5985 c-92 -15 -245 -53 -262 -65 -5 -4 -45 -19 -88 -34 -76
-26 -237 -105 -267 -131 -8 -7 -29 -20 -46 -28 -74 -38 -263 -206 -350 -312
-40 -49 -81 -99 -90 -109 -10 -11 -48 -71 -85 -135 -37 -64 -79 -134 -92 -156
-14 -22 -37 -64 -52 -94 -15 -30 -33 -60 -40 -68 -7 -7 -16 -27 -20 -44 -8
-35 4 -49 42 -49 33 0 266 -50 278 -60 6 -4 55 -22 110 -40 55 -18 109 -38
120 -44 50 -30 51 -30 111 77 183 327 321 467 573 584 137 64 251 87 431 87
183 0 276 -18 430 -86 63 -28 117 -54 120 -58 3 -4 30 -23 60 -42 241 -156
423 -475 451 -789 8 -99 -1 -243 -20 -302 -6 -17 -20 -64 -31 -103 -19 -69
-86 -209 -155 -324 -18 -30 -76 -134 -130 -230 -54 -96 -112 -200 -130 -230
-106 -181 -215 -377 -215 -385 0 -5 -10 -22 -23 -39 -13 -17 -33 -48 -45 -69
-37 -65 -123 -159 -202 -225 -120 -98 -136 -107 -325 -192 -61 -27 -260 -60
-370 -60 -104 0 -283 31 -350 60 -11 5 -51 23 -88 39 -223 99 -419 300 -528
541 -31 68 -80 275 -86 362 l-6 77 -56 25 c-148 66 -402 61 -538 -11 l-33 -18
0 -82 c0 -86 15 -221 29 -263 5 -14 19 -68 31 -120 25 -103 65 -207 133 -338
82 -162 159 -265 297 -402 133 -132 164 -158 281 -232 207 -133 436 -220 664
-253 118 -17 364 -19 487 -4 381 46 722 219 999 505 120 125 199 234 275 379
20 39 42 77 49 85 7 8 28 44 46 80 18 36 37 70 42 75 4 6 37 62 72 125 94 169
134 240 194 343 29 51 56 99 59 107 3 8 10 22 17 30 7 8 27 44 45 80 19 36 39
72 46 80 29 34 117 262 145 374 47 185 48 191 55 351 10 217 -6 337 -77 595
-33 121 -123 308 -207 433 -123 182 -321 380 -466 466 -23 13 -52 32 -64 42
-34 26 -218 114 -282 134 -30 10 -59 21 -65 25 -15 11 -108 36 -205 56 -118
23 -482 29 -603 9z"/>
<path d="M2145 4404 c-123 -13 -419 -87 -470 -118 -11 -7 -47 -23 -79 -36
-163 -65 -375 -217 -522 -374 -108 -115 -166 -195 -255 -351 -34 -60 -84 -146
-111 -191 -26 -45 -48 -86 -48 -91 0 -6 -8 -21 -19 -34 -10 -13 -34 -53 -52
-89 -19 -36 -37 -67 -40 -70 -3 -3 -23 -36 -44 -75 -21 -38 -41 -74 -45 -80
-4 -5 -21 -35 -37 -65 -17 -30 -56 -100 -88 -155 -91 -159 -161 -296 -185
-365 -13 -36 -27 -69 -31 -75 -12 -17 -48 -175 -64 -280 -8 -57 -15 -168 -15
-260 0 -300 49 -514 172 -765 39 -79 134 -235 164 -270 99 -114 170 -191 202
-220 101 -91 194 -160 268 -200 32 -17 62 -34 68 -39 26 -20 248 -111 321
-131 44 -12 100 -28 125 -35 89 -27 179 -35 390 -35 215 1 228 2 400 45 81 19
192 55 205 65 6 5 34 17 62 28 95 36 289 152 383 230 199 164 342 346 490 627
18 33 41 72 51 86 21 31 59 115 59 133 0 7 -26 17 -62 23 -108 19 -363 88
-383 103 -17 13 -140 60 -157 60 -9 0 -19 -8 -22 -17 -13 -33 -118 -217 -159
-278 -97 -144 -217 -255 -366 -339 -93 -53 -149 -75 -291 -111 -142 -38 -315
-36 -472 5 -142 36 -183 52 -273 104 -205 119 -351 278 -450 491 -92 198 -117
438 -70 670 16 78 90 266 125 315 10 14 31 50 47 80 16 30 36 66 45 80 23 38
200 351 217 385 8 17 29 53 46 80 18 28 41 68 52 90 11 22 44 81 73 130 29 50
67 115 84 145 129 234 368 426 611 490 44 12 91 26 104 33 35 17 362 16 421
-2 163 -49 214 -68 290 -109 96 -52 135 -81 229 -169 111 -104 204 -240 247
-362 15 -42 31 -80 35 -86 11 -15 36 -159 45 -253 7 -83 7 -83 41 -97 71 -30
220 -65 274 -65 58 0 215 35 283 64 l39 16 -6 123 c-3 67 -13 163 -22 212 -32
179 -134 441 -226 581 -62 93 -151 214 -159 214 -4 0 -18 15 -31 34 -33 47
-178 176 -269 240 -208 146 -418 234 -700 292 -65 14 -369 26 -445 18z"/>
</g>
</svg>
